<svg version="1.1" id="Layer_1" xmlns="http://www.w3.org/2000/svg" x="0" y="0" viewBox="0 0 512 512" style="enable-background:new 0 0 512 512" xml:space="preserve"><style>.st1{fill:#004c53}.st2{fill:#017f8d}.st3{fill:#00a1a1}</style><circle cx="256" cy="256" r="250" style="fill:#fff"/><path class="st1" d="M325.8 165.8h48.1v192.8l-48.1-44.9z"/><path class="st2" d="m375.3 316.4-1.2-75.9c-28.6 14.2-48.3 43.6-48.3 77.7 0 47.7 38.8 86.6 86.6 86.6H456.2c-48-.2-75.6-42.6-80.9-88.4z"/><path class="st2" d="M456.1 404.8h3.9l-.2-.2c-1.3.2-2.5.2-3.7.2z"/><path class="st1" d="m403.1 168 3.9 3.5c-1.2 1.8-1.8 3.2-1.8 3.9 0 .6.2 1.2.8 1.6.4.6 1 .8 1.6.8 1.4 0 2.6-1.2 3.5-3.5.6-1.8 1.4-3.2 2-3.9.6-1 1.4-1.6 2.4-2.2 1.2-.6 2.2-1 3.5-1 2.2 0 4.1 1 5.9 2.8 1.6 1.8 2.4 3.9 2.4 6.5 0 2.8-1.2 5.3-3.7 8.1l-4.3-3.7c1.8-1.6 2.6-3.2 2.6-4.7 0-.6-.4-1.4-1-2-.6-.6-1.2-1-1.8-1-1.6 0-2.8 1.6-3.7 4.5-.6 1.6-1.2 2.8-1.8 3.4-.4.8-1.2 1.4-2.2 1.8-1 .6-2.2.8-3.2.8-2.4 0-4.3-.8-5.7-2.4-1.4-1.4-2.2-3.4-2.2-5.9 0-3.1 1-5.5 2.8-7.4zm-2.4 25.6v-5.5h26.4v5.5l-17.2 12h17.2v5.7h-26.4v-5.5l17-12.2h-17zm5 35.5c0 2.2.8 3.9 2.4 5.3 1.6 1.4 3.5 2 5.9 2s4.3-.6 5.9-2c1.6-1.4 2.4-3.2 2.4-5.3 0-2.2-.8-3.9-2.4-5.3-1.6-1.4-3.5-2-5.9-2-2.6 0-4.5.6-5.9 2-1.7 1.3-2.4 3.1-2.4 5.3zm8.2 13.4c-3.9 0-7.3-1.4-9.7-3.9-2.6-2.6-3.9-5.7-3.9-9.3 0-3.7 1.4-7.1 3.9-9.7 2.6-2.6 5.7-3.7 9.7-3.7 3.7 0 7.1 1.2 9.7 3.7 2.6 2.6 3.7 5.7 3.7 9.5 0 3.9-1.2 7.1-3.7 9.7-2.6 2.3-5.7 3.7-9.7 3.7zm-13.2 10v-5.7h26.4v5.7h-26.4zm0 21.3v-17.7h5.5v5.9h20.9v5.7h-20.9v6.1h-5.5zm0 24.3v-5.5h16.2c1.4 0 2.6-.6 3.5-1.4 1-.8 1.4-1.8 1.4-3.2 0-1.6-.4-2.8-1.4-3.7-1-.8-2.2-1.2-3.9-1.2h-15.8v-5.7h17c1.6 0 3.2.4 4.7 1.2 1.6.8 3 2 3.7 3.7.8 1.6 1.2 3.4 1.2 5.3 0 3.5-1 6.3-3 7.9-2 1.8-4.1 2.6-6.3 2.6h-17.3zm0 17.5v-5.7h20.7V302h5.7v13.6h-26.4zm5 18.2c0 2.2.8 3.9 2.4 5.3 1.6 1.4 3.5 2 5.9 2s4.3-.6 5.9-2c1.6-1.4 2.4-3.2 2.4-5.3 0-2.2-.8-3.9-2.4-5.3-1.6-1.4-3.5-2-5.9-2-2.6 0-4.5.6-5.9 2-1.7 1.1-2.4 2.9-2.4 5.3zm8.2 13.2c-3.9 0-7.3-1.2-9.7-3.7-2.6-2.8-3.9-5.7-3.9-9.3 0-3.9 1.4-7.1 3.9-9.7 2.6-2.6 5.7-3.9 9.7-3.9 3.7 0 7.1 1.4 9.7 3.9 2.6 2.4 3.7 5.7 3.7 9.5 0 3.9-1.2 7.1-3.7 9.5-2.6 2.5-5.7 3.7-9.7 3.7zm-10.8 3.9 3.9 3.5c-1.2 1.8-1.8 3.2-1.8 3.9 0 .8.2 1.2.8 1.8.4.4 1 .6 1.6.6 1.4 0 2.6-1.2 3.5-3.5.6-1.8 1.4-3 2-3.9.6-.8 1.4-1.6 2.4-2.2 1.2-.6 2.2-.8 3.5-.8 2.2 0 4.1.8 5.9 2.6 1.6 2 2.4 4.1 2.4 6.5 0 2.8-1.2 5.5-3.7 8.1l-4.3-3.7c1.8-1.6 2.6-3.2 2.6-4.5 0-.8-.4-1.4-1-2-.6-.8-1.2-1-1.8-1-1.6 0-2.8 1.4-3.7 4.3-.6 1.6-1.2 2.8-1.8 3.5-.4.6-1.2 1.2-2.2 1.8-1 .4-2.2.6-3.2.6-2.4 0-4.3-.6-5.7-2.2-1.4-1.6-2.2-3.5-2.2-6.1 0-2.7 1-5.3 2.8-7.3zM252.6 216.5c-8.9-16-21.7-29-38.1-39-16.6-10.1-33.9-15-52.3-15-29.6 0-55.4 12.2-77.3 36.7-22.1 24.5-33.1 53-33.1 85.6 0 34.5 11 63.9 32.7 88.1 21.9 24.1 48.1 36.3 78.9 36.3 35.5 0 65.3-17.7 89.1-53v46.3h49.3V168.9h-49.3v47.6zm-16.1 124.8c-15.2 15.4-33.5 23.1-55 23.1s-39.8-7.9-55-23.3c-15.2-15.6-22.7-34.3-22.7-56.4 0-20.3 7.7-38.1 23.3-53.2 15.6-15 33.7-22.7 54.4-22.7 21.5 0 39.8 7.7 55 22.9 15.4 15.2 23.1 33.5 23.1 54.8-.1 21.1-7.7 39.4-23.1 54.8z"/><path class="st3" d="M326.4 134.4h19.5v19.7h-19.5z"/><path class="st2" d="M353.8 134.4h19.7v19.7h-19.7z"/><path class="st1" d="M353.8 102.9h19.7v19.7h-19.7z"/><path class="st3" d="M328.6 328.7c0-34.9 16.8-65.9 42.6-85.6.6-.8 1.2-1.6 1.8-2.6-28 14.4-47.1 43.6-47.1 77.1 0 8.7 1.4 17.2 3.7 25-.6-4.5-1-9.2-1-13.9z"/></svg>