<?xml version="1.0" standalone="no"?>
<!DOCTYPE svg PUBLIC "-//W3C//DTD SVG 20010904//EN"
 "http://www.w3.org/TR/2001/REC-SVG-20010904/DTD/svg10.dtd">
<svg version="1.0" xmlns="http://www.w3.org/2000/svg"
 width="700.000000pt" height="700.000000pt" viewBox="0 0 700.000000 700.000000"
 preserveAspectRatio="xMidYMid meet">
<metadata>
Created by potrace 1.14, written by Peter Selinger 2001-2017
</metadata>
<g transform="translate(0.000000,700.000000) scale(0.100000,-0.100000)"
fill="#000000" stroke="none">
<path d="M3318 6915 c-2 -1 -43 -5 -93 -9 -49 -4 -103 -9 -120 -11 -16 -2 -55
-7 -85 -10 -30 -3 -62 -8 -71 -11 -10 -3 -30 -6 -45 -9 -125 -17 -465 -108
-579 -155 -11 -4 -63 -25 -115 -45 -693 -275 -1311 -820 -1687 -1487 -208
-368 -365 -832 -408 -1208 -3 -25 -7 -54 -10 -65 -18 -83 -26 -504 -12 -670
12 -150 32 -300 52 -390 2 -5 5 -26 8 -45 4 -20 20 -88 36 -152 310 -1200
1257 -2147 2456 -2457 108 -27 247 -57 315 -66 14 -2 59 -9 100 -15 117 -17
250 -24 435 -24 152 0 392 11 405 19 3 1 35 6 72 9 37 4 81 11 98 16 17 5 33
9 35 9 43 -2 337 72 487 122 910 306 1662 997 2047 1885 80 184 165 449 197
609 2 11 11 56 20 100 9 44 17 89 19 100 4 37 17 130 21 149 24 131 24 601 -1
801 -37 293 -129 653 -221 862 -8 17 -14 34 -14 38 0 24 -159 337 -235 463
-150 245 -297 433 -505 643 -317 320 -706 582 -1107 744 -49 20 -97 40 -108
45 -115 52 -482 149 -660 175 -111 16 -175 24 -250 31 -51 5 -472 13 -477 9z"/>
</g>
</svg>
